<?xml version="1.0" encoding="UTF-8" standalone="no"?>
<svg
   xmlns:dc="http://purl.org/dc/elements/1.1/"
   xmlns:cc="http://creativecommons.org/ns#"
   xmlns:rdf="http://www.w3.org/1999/02/22-rdf-syntax-ns#"
   xmlns:svg="http://www.w3.org/2000/svg"
   xmlns="http://www.w3.org/2000/svg"
   xmlns:xlink="http://www.w3.org/1999/xlink"
   xmlns:sodipodi="http://sodipodi.sourceforge.net/DTD/sodipodi-0.dtd"
   xmlns:inkscape="http://www.inkscape.org/namespaces/inkscape"
   version="1.1"
   id="svg2"
   xml:space="preserve"
   width="151"
   height="151"
   viewBox="0 0 151 151"
   sodipodi:docname="icon.svg"
   inkscape:version="1.0.2 (e86c870879, 2021-01-15, custom)"
   inkscape:export-filename="C:\Users\franc\Desktop\ic_launcher.png"
   inkscape:export-xdpi="45.77"
   inkscape:export-ydpi="45.77"><metadata
     id="metadata8"><rdf:RDF><cc:Work
         rdf:about=""><dc:format>image/svg+xml</dc:format><dc:type
           rdf:resource="http://purl.org/dc/dcmitype/StillImage" /><dc:title></dc:title></cc:Work></rdf:RDF></metadata><defs
     id="defs6"><linearGradient
       inkscape:collect="always"
       id="linearGradient861"><stop
         style="stop-color:#295343;stop-opacity:1;"
         offset="0"
         id="stop857" /><stop
         style="stop-color:#295343;stop-opacity:0;"
         offset="1"
         id="stop859" /></linearGradient><linearGradient
       inkscape:collect="always"
       xlink:href="#linearGradient861"
       id="linearGradient863"
       x1="-169.97536"
       y1="-108.5967"
       x2="-52.232254"
       y2="-220.16177"
       gradientUnits="userSpaceOnUse" /></defs><sodipodi:namedview
     pagecolor="#ffffff"
     bordercolor="#666666"
     borderopacity="1"
     objecttolerance="10"
     gridtolerance="10"
     guidetolerance="10"
     inkscape:pageopacity="0"
     inkscape:pageshadow="2"
     inkscape:window-width="1920"
     inkscape:window-height="1027"
     id="namedview4"
     showgrid="false"
     inkscape:zoom="2.6707632"
     inkscape:cx="77.317443"
     inkscape:cy="52.297614"
     inkscape:window-x="-8"
     inkscape:window-y="-8"
     inkscape:window-maximized="1"
     inkscape:current-layer="g10"
     inkscape:document-rotation="0"
     fit-margin-top="0"
     fit-margin-left="0"
     fit-margin-right="0"
     fit-margin-bottom="0" /><g
     id="g10"
     inkscape:groupmode="layer"
     inkscape:label="halyid-logo"
     transform="matrix(1.3333333,0,0,1.3333333,240.0063,-125.80672)"><rect
       style="opacity:1;fill:url(#linearGradient863);fill-opacity:1;stroke:none;stroke-width:0.749999;stroke-miterlimit:4;stroke-dasharray:none;stroke-opacity:1"
       id="rect929"
       width="113.25"
       height="113.25"
       x="-207.60504"
       y="-180.00473"
       transform="rotate(-90)"
       inkscape:export-xdpi="122.07"
       inkscape:export-ydpi="122.07" /><path
       style="fill:#ffffff;fill-opacity:1;stroke:none;stroke-width:0.517077;stroke-miterlimit:4;stroke-dasharray:none;stroke-opacity:1"
       d="m -123.95994,199.33715 -0.62845,-0.22086 c -1.7257,-0.60641 -4.42132,-2.23674 -5.50027,-3.32661 -1.99021,-2.01025 -3.99097,-4.30939 -5.01558,-5.76358 l -0.67551,-0.95869 0.67407,-1.1209 c 2.474,-4.1138 5.40602,-8.06864 7.41723,-10.00471 l 0.88884,-0.85563 0.61683,0.59254 c 0.8612,0.82731 1.51547,1.11856 2.51291,1.11867 0.65959,6e-5 0.85891,-0.0417 1.35358,-0.28391 0.32574,-0.15947 0.82758,-0.53084 1.14439,-0.84694 l 0.56426,-0.56292 0.59597,0.53698 c 1.20863,1.08903 2.76154,2.9406 4.42064,5.2708 1.64859,2.3154 3.99915,6.03933 3.928,6.22291 -0.0234,0.0602 -0.49853,0.71884 -1.05598,1.4636 -0.90892,1.21435 -2.53261,3.06224 -4.44244,5.05578 -1.11799,1.167 -3.96925,2.90565 -5.73493,3.49706 l -0.58013,0.19433 z m -12.68699,-10.45612 c -0.47261,-0.61321 -1.73438,-2.97427 -2.52235,-4.71992 -2.46885,-5.46932 -3.91581,-11.70861 -3.92448,-16.92234 -0.003,-2.01509 0.0683,-2.66239 0.42389,-3.83091 0.38543,-1.26647 0.84617,-3.87299 1.20592,-6.82223 0.16719,-1.37095 0.53569,-4.96698 0.53569,-5.22814 0,-0.16371 -0.14016,-0.17508 -2.16238,-0.17508 -2.01601,0 -2.17904,-0.0132 -2.40825,-0.19347 -0.17885,-0.14075 -0.38665,-0.19205 -0.76233,-0.1884 l -0.51653,0.004 -3.96256,4.15809 c -4.24044,4.44971 -4.31566,4.51494 -5.45331,4.72918 -0.84955,0.15997 -1.39519,0.11782 -3.7334,-0.28777 -1.22308,-0.21224 -2.25934,-0.38633 -2.30277,-0.38691 -0.0435,-6.9e-4 -0.0519,-0.0865 -0.0188,-0.19083 0.0331,-0.10431 0.0156,-0.27392 -0.0398,-0.37675 -0.0751,-0.14045 -0.0645,-0.2165 0.043,-0.30567 0.0787,-0.0654 0.14295,-0.1787 0.14295,-0.25198 0,-0.17739 -0.0428,-0.18134 2.21402,0.20564 2.32322,0.39838 3.41581,0.43853 4.01585,0.14762 0.2729,-0.13237 1.63356,-1.48947 4.45008,-4.43864 l 4.05698,-4.24805 0.76705,-0.0669 c 0.70904,-0.062 0.79059,-0.0918 1.07877,-0.39762 l 0.31173,-0.33068 h 2.21415 2.21414 l 0.60201,1.20907 c 0.43259,0.86882 0.56132,1.20908 0.45748,1.20908 -0.0793,0 -0.14471,0.027 -0.14471,0.0604 0,0.0551 1.03096,2.09279 4.5944,9.08005 7.29483,14.30396 7.25019,14.21553 7.49342,14.84731 0.11253,0.29257 0.30762,0.71725 0.43331,0.9437 l 0.22849,0.41172 -0.54537,0.50718 c -0.71108,0.66127 -1.6991,1.70231 -2.36456,2.49149 -1.47118,1.74458 -3.93731,5.29568 -5.72543,8.24434 -0.41134,0.6783 -0.76034,1.23327 -0.77556,1.23327 -0.0156,0 -0.0696,-0.0544 -0.12091,-0.12106 z m 25.20779,-0.77564 c -0.82562,-1.38345 -2.36816,-3.75909 -3.43235,-5.28614 -1.41537,-2.031 -2.832,-3.76661 -4.17701,-5.1176 l -1.18724,-1.19254 0.37421,-0.79034 c 0.20584,-0.43467 0.40649,-0.89915 0.44593,-1.03215 0.0395,-0.13296 0.21296,-0.50295 0.3856,-0.82215 0.17273,-0.31922 1.03252,-1.99495 1.91082,-3.72393 1.49261,-2.93826 4.23412,-8.32207 7.96217,-15.63616 0.87192,-1.71063 1.5853,-3.15789 1.5853,-3.21612 0,-0.0583 -0.0662,-0.10578 -0.14716,-0.10578 -0.10563,0 0.0288,-0.3337 0.47886,-1.18489 l 0.62607,-1.18487 2.52643,-0.0259 2.52644,-0.0259 0.33366,0.3338 c 0.3061,0.30623 0.39641,0.33926 1.09372,0.40011 l 0.760064,0.0663 4.046748,4.24404 c 2.369078,2.4846 4.187027,4.31351 4.38513,4.41156 0.628025,0.31091 1.834134,0.27797 4.063127,-0.11092 2.233283,-0.38964 2.221427,-0.38839 2.221427,-0.23295 0,0.0623 0.07125,0.19209 0.158317,0.28835 0.117681,0.13003 0.13105,0.20794 0.05245,0.30283 -0.05833,0.0704 -0.0808,0.22342 -0.05039,0.34036 0.03056,0.11695 0.02409,0.2126 -0.01557,0.2126 -0.03849,0 -1.098629,0.17874 -2.3559,0.39725 -3.001095,0.52153 -3.927464,0.47332 -5.028635,-0.26157 -0.179048,-0.11959 -2.062859,-2.0379 -4.186234,-4.26311 l -3.8607,-4.04583 -0.503004,-0.0499 c -0.4116,-0.0408 -0.54395,-0.0147 -0.72816,0.14515 -0.20995,0.18183 -0.39578,0.19825 -2.7524,0.24336 l -2.52728,0.0483 0.0269,0.48364 c 0.0156,0.26599 0.13414,1.5065 0.26523,2.75666 0.42411,4.03934 0.92552,7.1359 1.44681,8.93467 0.33909,1.17009 0.42646,1.93738 0.42863,3.76323 0.007,5.56941 -1.76338,12.67845 -4.55513,18.29563 -0.76014,1.52948 -1.90355,3.53986 -2.01027,3.53458 -0.0306,-10e-4 -0.29497,-0.4037 -0.58744,-0.89378 z m -52.2952,-5.15151 c -0.25928,-0.25442 -0.314,-0.37073 -0.26552,-0.56404 0.0338,-0.13384 0.0168,-0.27054 -0.0358,-0.30352 -0.0533,-0.0331 -0.097,-0.0959 -0.097,-0.13972 0,-0.0438 0.8375,-0.5285 1.86118,-1.07712 3.64063,-1.9511 4.13097,-2.29669 4.5048,-3.1749 0.23,-0.54033 0.65841,-3.45535 1.51528,-10.31077 0.34577,-2.76633 0.69391,-5.41244 0.77362,-5.88021 0.24823,-1.45673 0.93987,-2.49196 2.01306,-3.01305 0.69873,-0.33927 2.85049,-0.90274 6.68712,-1.75116 1.80802,-0.3998 3.67285,-0.81502 4.14404,-0.92269 0.47121,-0.10769 0.87962,-0.17288 0.90762,-0.14486 0.0704,0.0704 -0.14935,1.72099 -0.24042,1.80672 -0.18868,0.17768 -5.55063,1.78626 -8.8521,2.6556 -1.70948,0.45012 -1.98233,0.5865 -2.18654,1.09298 -0.0569,0.14104 -0.45183,2.62864 -0.87776,5.52797 -1.68643,11.4802 -1.67503,11.42337 -2.5148,12.53657 -0.40951,0.54283 -1.3228,1.27294 -2.07758,1.66081 -1.10485,0.56779 -4.65315,2.26794 -4.78738,2.29383 -0.0799,0.0156 -0.29201,-0.11621 -0.47166,-0.29251 z m 77.578506,-0.95898 c -3.320379,-1.63625 -4.053416,-2.19472 -4.702657,-3.58266 -0.373653,-0.79882 -0.561251,-1.87742 -1.863537,-10.71504 -0.507686,-3.4452 -0.984724,-6.38333 -1.060122,-6.52918 -0.251169,-0.48594 -0.503205,-0.60717 -2.162675,-1.0404 -2.52766,-0.65991 -5.180785,-1.43303 -7.497425,-2.18473 -1.74229,-0.56535 -2.09886,-0.71143 -2.06122,-0.84446 0.025,-0.0884 0.0945,-0.4078 0.15419,-0.7096 0.15589,-0.78765 0.22209,-0.81853 1.23315,-0.57606 0.4658,0.11181 1.9755,0.4464 3.35489,0.74371 3.553327,0.76591 6.905808,1.62797 7.497559,1.92795 1.052615,0.53363 1.74524,1.55203 1.982819,2.91552 0.07302,0.41842 0.441838,3.22002 0.819855,6.22574 0.828567,6.58862 1.213558,9.27019 1.423238,9.91336 0.290836,0.89213 0.907828,1.36613 3.828535,2.94121 1.420347,0.76595 2.58243,1.42718 2.58243,1.46934 0,0.0423 -0.03776,0.10005 -0.08374,0.12841 -0.04613,0.0283 -0.06215,0.16428 -0.03585,0.30184 0.03776,0.19772 -0.02806,0.31969 -0.315181,0.58265 -0.199616,0.18293 -0.390137,0.32949 -0.423326,0.3257 -0.03306,-0.004 -1.2351,-0.58583 -2.67086,-1.29336 z m -38.696606,-4.11485 c -0.78611,-0.3979 -1.44791,-1.14526 -1.96096,-2.21451 -0.82623,-1.72194 -4.06491,-8.14702 -7.8556,-15.58441 -6.34903,-12.45691 -8.14732,-16.10763 -8.04173,-16.3257 0.12679,-0.2619 1.42684,-1.37102 2.17101,-1.85218 0.78671,-0.50872 3.23587,-1.71711 6.27962,-3.09836 1.30111,-0.59043 2.55174,-1.18262 2.77916,-1.31597 0.43724,-0.25634 0.70466,-0.65119 0.70466,-1.04043 0,-0.36177 0.22223,-0.48149 0.80415,-0.43321 1.05982,0.0879 2.6889,1.09614 2.91313,1.8029 0.0589,0.18579 0.11768,0.20085 0.61526,0.15745 2.50754,-0.21873 2.72253,-0.22328 4.32083,-0.0912 1.49581,0.12341 1.65235,0.12179 1.74037,-0.0194 0.4568,-0.73291 0.72073,-0.96921 1.54077,-1.37958 1.40901,-0.70506 2.2783,-0.65589 2.2783,0.12885 0,0.5883 0.19178,0.70527 4.06701,2.48084 2.83743,1.30006 4.94471,2.35641 5.78658,2.90078 0.95283,0.61608 2.03874,1.63923 2.03874,1.92085 0,0.24878 -4.30986,8.85361 -10.96878,21.8996 -2.22094,4.35125 -4.24869,8.39177 -4.5061,8.97897 -0.58085,1.32507 -0.92194,1.86229 -1.57432,2.47954 -0.68949,0.65232 -1.04849,0.8208 -1.85284,0.86941 -0.6109,0.037 -0.73548,0.0118 -1.27926,-0.26403 z m 10.57328,-39.93908 -0.7613,-0.36025 1.34141,-1.01426 c 1.42108,-1.07452 2.96918,-2.18672 4.73942,-3.40496 1.04958,-0.72231 2.34438,-1.41932 2.64212,-1.4223 0.37839,-0.003 0.39364,-0.0987 0.24176,-1.50291 -0.0801,-0.74196 -0.17238,-2.15421 -0.20485,-3.13843 -0.0641,-1.9425 0.009,-2.47857 0.38312,-2.82904 0.20337,-0.19035 6.526054,-3.94169 6.643474,-3.94169 0.135895,0 0.466987,0.57625 0.496679,0.86453 0.03247,0.31415 0.03203,0.31434 -1.707963,1.28267 -0.9572,0.53268 -2.33356,1.26748 -3.05859,1.63291 l -1.31821,0.66442 0.093,0.43647 c 0.0599,0.28154 0.0577,1.60727 -0.004,3.73453 l -0.0995,3.29798 -0.29885,0.46594 c -0.57418,0.89513 -1.20234,1.37674 -4.27625,3.27856 -1.50428,0.93072 -3.94894,2.3386 -4.03618,2.32446 -0.0286,-0.004 -0.39431,-0.17049 -0.81303,-0.36863 z m -20.93975,-0.70182 c -2.39138,-1.40745 -4.8101,-2.94124 -5.34597,-3.39008 -0.27262,-0.22835 -0.67715,-0.66178 -0.89897,-0.96321 l -0.40328,-0.54807 -0.0629,-1.33836 c -0.0865,-1.83919 -0.0965,-5.84798 -0.0156,-6.04873 0.0544,-0.13428 -0.15075,-0.2733 -1.12159,-0.7602 -1.43661,-0.72047 -4.61846,-2.47489 -4.83049,-2.66349 -0.19998,-0.17785 -0.13531,-0.59019 0.14809,-0.94398 0.26657,-0.33281 -0.20169,-0.55538 3.81475,1.81313 3.74625,2.20914 3.4843,1.91046 3.48683,3.97629 0.001,1.22921 -0.20542,4.20088 -0.34411,4.94244 -0.0558,0.29821 -0.0526,0.30073 0.65179,0.52736 0.51977,0.16719 1.09662,0.48947 2.17121,1.21302 2.19504,1.478 5.91348,4.17382 5.92898,4.29843 0.009,0.0714 -1.41976,0.77155 -1.56637,0.76772 -0.0654,-0.001 -0.79141,-0.39874 -1.61297,-0.88227 z m 8.47446,-0.17182 c -0.0914,-0.15464 -0.30702,-0.40027 -0.47939,-0.54603 -0.40945,-0.34615 -1.71837,-0.96859 -2.39222,-1.13762 -0.49379,-0.12385 -0.53394,-0.15541 -0.56241,-0.44194 -0.0757,-0.76225 1.22374,-2.03749 2.08043,-2.04166 0.71547,-0.003 0.85702,-0.20355 0.5124,-0.72412 -0.27716,-0.41867 -0.2439,-0.8637 0.10739,-1.43456 0.26149,-0.42516 0.28774,-0.52716 0.20177,-0.78449 -0.0544,-0.16268 -0.26071,-0.76478 -0.4585,-1.33794 -0.3537,-1.02489 -0.35664,-1.04546 -0.17773,-1.24314 0.0999,-0.11048 0.3075,-0.26604 0.46109,-0.34547 0.26781,-0.13855 0.28847,-0.13311 0.50433,0.13075 0.124,0.15137 0.22668,0.30791 0.2286,0.34781 0.007,0.1362 0.19684,0.073 0.19684,-0.0655 0,-0.22095 0.66887,-0.7113 1.25181,-0.91772 0.29532,-0.1046 0.72251,-0.258 0.94936,-0.34102 0.32319,-0.11842 0.50631,-0.12988 0.84599,-0.0538 0.29043,0.0652 0.57665,0.0652 0.86708,0 0.3409,-0.0764 0.52164,-0.0647 0.84597,0.0555 0.22684,0.0839 0.63001,0.22058 0.89592,0.30358 0.56868,0.17757 1.30525,0.65645 1.30525,0.84862 0,0.27344 0.17664,0.23074 0.39942,-0.0964 0.12591,-0.18506 0.28407,-0.33676 0.35131,-0.33713 0.0671,-4e-4 0.2848,0.14965 0.48346,0.33321 l 0.36112,0.33385 -0.4525,1.31865 -0.45254,1.31861 0.35058,0.67143 0.35057,0.67142 -0.26902,0.54878 c -0.25434,0.51878 -0.25965,0.55568 -0.0973,0.67458 0.0946,0.0692 0.32679,0.12606 0.51602,0.12679 0.43387,0.001 1.22162,0.44539 1.6448,0.92758 0.6023,0.68627 0.70761,1.32479 0.26914,1.63201 -0.1705,0.11929 -0.23288,0.11915 -0.46756,-0.001 -0.82814,-0.42841 -2.94087,0.33606 -3.87542,1.40228 l -0.41749,0.47633 -1.41203,-0.12091 c -0.807,-0.069 -1.7391,-0.0917 -2.17542,-0.0526 -2.31342,0.20675 -2.10621,0.21555 -2.29102,-0.0974 z m -1.60564,-10.63221 c -1.86244,-3.08923 -4.72129,-7.45697 -6.24434,-9.54004 -0.86447,-1.18237 -0.9587,-1.34411 -1.06122,-1.82167 -0.0407,-0.18955 -0.15591,-0.31306 -0.37877,-0.40625 -0.20415,-0.0852 -0.64811,-0.52705 -1.22423,-1.21803 -3.53116,-4.2352 -6.90459,-7.20561 -9.89245,-8.71068 -0.89703,-0.45185 -2.76355,-1.14477 -3.08368,-1.14477 -0.0799,0 -0.20057,-0.13354 -0.26824,-0.29706 -0.10887,-0.26291 -0.10137,-0.31881 0.066,-0.48606 0.17773,-0.17783 0.21433,-0.18037 0.61886,-0.0432 0.23648,0.0801 0.87326,0.27752 1.41505,0.43864 2.45796,0.73096 5.25376,2.56235 8.0454,5.27016 2.10517,2.04195 4.66117,5.0784 4.84276,5.75303 0.0755,0.2807 0.20831,0.4534 0.5015,0.65246 0.93172,0.63261 4.71171,6.42136 6.80336,10.41874 l 0.71747,1.37117 -0.26399,0.15494 -0.26404,0.15495 z m 10.09865,0.41666 c -0.18572,-0.14045 -0.18313,-0.15573 0.1309,-0.79492 2.06565,-4.20291 6.75985,-11.33978 7.45859,-11.33978 0.0514,0 0.14691,-0.19878 0.21178,-0.44168 0.20746,-0.77598 3.32026,-4.4095 5.44061,-6.35073 2.58204,-2.36392 5.085194,-3.96878 7.251429,-4.64915 0.425412,-0.13355 1.075916,-0.33689 1.445559,-0.45174 l 0.672071,-0.20877 0.16033,0.21274 c 0.126642,0.16794 0.139424,0.26855 0.06024,0.47771 -0.08301,0.22007 -0.191315,0.28495 -0.639118,0.38293 -1.341688,0.29357 -3.523097,1.35107 -5.080801,2.46307 -2.33981,1.67033 -5.15537,4.39985 -7.53856,7.30817 -0.51956,0.63401 -0.94941,1.06458 -1.14402,1.14591 -0.39406,0.16468 -0.36149,0.12297 -0.46872,0.60047 -0.0591,0.26273 -0.33928,0.73743 -0.7896,1.33751 -1.48813,1.98288 -3.77348,5.4254 -5.83472,8.78912 -0.56235,0.91769 -1.05045,1.66713 -1.08469,1.66544 -0.0344,-0.001 -0.14763,-0.0674 -0.25161,-0.14633 z"
       id="path24-8"
       sodipodi:nodetypes="cssscsscsssscssssssccssssssssscssscssssssscsscccsssssscssssssssscsssssssscccsscssssssssssscssscssssscsssssssssssssssssssssssssssssssssssssssssssssssssssssscsssssssssssccsssssssssscsccsssscssscsssssscsssscsssssssssssssssssssssssscscccccssssssscssssssssssssssssssscccsssssssscsssssssssss"
       inkscape:export-xdpi="122.07"
       inkscape:export-ydpi="122.07" /></g></svg>
